<?xml version="1.0" encoding="iso-8859-1"?>
<!-- Generator: Adobe Illustrator 19.0.0, SVG Export Plug-In . SVG Version: 6.00 Build 0)  -->
<svg version="1.1" id="Layer_1" xmlns="http://www.w3.org/2000/svg" xmlns:xlink="http://www.w3.org/1999/xlink" x="0px" y="0px"
	 viewBox="0 0 503.467 503.467" style="enable-background:new 0 0 503.467 503.467;" xml:space="preserve">
<g transform="translate(3 3)">
	<path style="fill:#FFD0A1;" d="M436.467,496.2H393.8h-42.667h-42.667v-59.733c0-14.507,11.093-25.6,25.6-25.6h93.867h25.6
		c14.507,0,25.6,11.093,25.6,25.6V496.2H436.467z M393.8,154.867c8.533,13.653,8.533,25.6,0,34.133l-51.2,51.2l-59.733-59.733
		l-1.707-2.56c15.36-9.387,27.307-24.747,27.307-40.107V43.933l58.88,76.8L393.8,154.867z M130.12,120.733l58.88-76.8V137.8
		c0,15.36,11.947,30.72,27.307,40.107l-1.707,2.56L154.867,240.2l-51.2-51.2c-8.533-8.533-8.533-20.48,0-34.133L130.12,120.733z
		 M146.333,496.2h-42.667H61H18.333v-59.733c0-14.507,11.093-25.6,25.6-25.6h25.6H163.4c14.507,0,25.6,11.093,25.6,25.6V496.2
		H146.333z"/>
	<path style="fill:#FFD0A1;" d="M248.733,496.2H189v-59.733c0-14.507-11.093-25.6-25.6-25.6H69.533V342.6h358.4v68.267h-93.867
		c-14.507,0-25.6,11.093-25.6,25.6V496.2H248.733z M248.733,18.333c25.6,0,48.64,11.093,59.733,25.6V137.8
		c0,15.36-11.947,30.72-27.307,40.107C270.92,184.733,258.973,189,248.733,189s-22.187-4.267-32.427-11.093
		C200.947,168.52,189,153.16,189,137.8V43.933C200.093,29.427,214.6,18.333,248.733,18.333z M78.067,317l76.8-76.8l59.733-59.733
		l1.707-2.56c10.24,6.827,22.187,11.093,32.427,11.093s22.187-4.267,32.427-11.093l1.707,2.56L342.6,240.2l76.8,76.8
		c8.533,8.533,8.533,17.067,8.533,25.6h-358.4C69.533,334.067,69.533,325.533,78.067,317z"/>
</g>
<path style="fill:#51565F;" d="M499.2,503.467H4.267C1.707,503.467,0,501.76,0,499.2c0-2.56,1.707-4.267,4.267-4.267h12.8v-55.467
	c0-16.213,13.653-29.867,29.867-29.867H166.4c16.213,0,29.867,13.653,29.867,29.867v55.467h51.2v-64c0-2.56,1.707-4.267,4.267-4.267
	c2.56,0,4.267,1.707,4.267,4.267v64h51.2v-55.467c0-16.213,13.653-29.867,29.867-29.867h119.467
	c16.213,0,29.867,13.653,29.867,29.867v55.467h12.8c2.56,0,4.267,1.707,4.267,4.267C503.467,501.76,501.76,503.467,499.2,503.467z
	 M443.733,494.933h34.133v-55.467c0-11.947-9.387-21.333-21.333-21.333H337.067c-11.947,0-21.333,9.387-21.333,21.333v55.467h34.133
	V448c0-2.56,1.707-4.267,4.267-4.267S358.4,445.44,358.4,448v46.933h34.133V448c0-2.56,1.707-4.267,4.267-4.267
	s4.267,1.707,4.267,4.267v46.933H435.2V448c0-2.56,1.707-4.267,4.267-4.267c2.56,0,4.267,1.707,4.267,4.267V494.933z M153.6,494.933
	h34.133v-55.467c0-11.947-9.387-21.333-21.333-21.333H46.933c-11.947,0-21.333,9.387-21.333,21.333v55.467h34.133V448
	c0-2.56,1.707-4.267,4.267-4.267c2.56,0,4.267,1.707,4.267,4.267v46.933H102.4V448c0-2.56,1.707-4.267,4.267-4.267
	s4.267,1.707,4.267,4.267v46.933h34.133V448c0-2.56,1.707-4.267,4.267-4.267S153.6,445.44,153.6,448V494.933z M430.933,392.533
	c-2.56,0-4.267-1.707-4.267-4.267V345.6c0-8.533,0-15.36-7.68-22.187L308.053,212.48c-1.707-1.707-1.707-4.267,0-5.973
	s4.267-1.707,5.973,0L424.96,317.44c9.387,9.387,9.387,19.627,9.387,29.013v42.667C435.2,390.827,433.493,392.533,430.933,392.533z
	 M72.533,392.533c-2.56,0-4.267-1.707-4.267-4.267V345.6c0-8.533,0-18.773,9.387-29.013l110.933-110.933
	c1.707-1.707,4.267-1.707,5.973,0c1.707,1.707,1.707,4.267,0,5.973L83.627,322.56c-5.973,5.973-6.827,11.947-6.827,17.92h320
	c2.56,0,4.267,1.707,4.267,4.267c0,2.56-1.707,4.267-4.267,4.267h-320v38.4C76.8,390.827,75.093,392.533,72.533,392.533z
	 M362.667,230.4c-0.853,0-2.56,0-3.413-0.853c-1.707-1.707-1.707-4.267,0-5.973l26.453-26.453h-49.493
	c-2.56,0-4.267-1.707-4.267-4.267s1.707-4.267,4.267-4.267h58.027c5.12-6.827,5.12-14.507-0.853-25.6h-48.64
	c-2.56,0-4.267-1.707-4.267-4.267c0-2.56,1.707-4.267,4.267-4.267h42.667l-19.627-25.6h-23.04c-2.56,0-4.267-1.707-4.267-4.267
	s1.707-4.267,4.267-4.267h16.213l-46.08-59.733v81.067c0,26.453-33.28,52.907-59.733,55.467v21.333c0,2.56-1.707,4.267-4.267,4.267
	s-4.267-1.707-4.267-4.267V197.12c-26.453-2.56-59.733-29.013-59.733-55.467V60.586L140.8,120.32h16.213
	c2.56,0,4.267,1.707,4.267,4.267s-1.707,4.267-4.267,4.267h-23.04l-19.627,25.6h42.667c2.56,0,4.267,1.707,4.267,4.267
	c0,2.56-1.707,4.267-4.267,4.267h-48.64c-5.973,10.24-5.973,18.773-0.853,25.6h58.027c2.56,0,4.267,1.707,4.267,4.267
	s-1.707,4.267-4.267,4.267h-49.493l26.453,26.453c1.707,1.707,1.707,4.267,0,5.973s-4.267,1.707-5.973,0L102.4,195.413l0,0
	c-6.827-6.827-12.8-19.627-0.853-39.253c0,0,0-0.853,0.853-0.853l24.747-31.573c0-1.707,0.853-2.56,2.56-3.413l58.027-75.093l0,0
	c10.24-13.653,24.747-26.453,58.88-27.307V4.267c0-2.56,1.707-4.267,4.267-4.267c2.56,0,4.267,1.707,4.267,4.267v12.8
	c23.893,0.853,46.933,11.093,58.88,27.307l0,0l58.027,75.093c1.707,0.853,2.56,1.707,2.56,3.413l24.747,32.427
	c0,0,0,0.853,0.853,0.853c11.093,19.627,5.973,32.427-0.853,38.4l0,0l-34.133,34.133C365.227,230.4,363.52,230.4,362.667,230.4z
	 M196.267,48.64v92.16c0,23.04,32.427,46.933,55.467,46.933S307.2,163.84,307.2,140.8V48.64c-10.24-12.8-29.867-21.333-51.2-23.04
	v12.8c0,2.56-1.707,4.267-4.267,4.267c-2.56,0-4.267-1.707-4.267-4.267V25.6C219.307,26.453,206.507,34.987,196.267,48.64z
	 M260.267,145.067H243.2c-2.56,0-4.267-1.707-4.267-4.267c0-2.56,1.707-4.267,4.267-4.267h17.067c2.56,0,4.267,1.707,4.267,4.267
	C264.533,143.36,262.827,145.067,260.267,145.067z M277.333,93.867H268.8c-2.56,0-4.267-1.707-4.267-4.267
	c0-2.56,1.707-4.267,4.267-4.267h8.533c2.56,0,4.267,1.707,4.267,4.267C281.6,92.16,279.893,93.867,277.333,93.867z M234.667,93.867
	h-8.533c-2.56,0-4.267-1.707-4.267-4.267c0-2.56,1.707-4.267,4.267-4.267h8.533c2.56,0,4.267,1.707,4.267,4.267
	C238.933,92.16,237.227,93.867,234.667,93.867z"/>
<g>
</g>
<g>
</g>
<g>
</g>
<g>
</g>
<g>
</g>
<g>
</g>
<g>
</g>
<g>
</g>
<g>
</g>
<g>
</g>
<g>
</g>
<g>
</g>
<g>
</g>
<g>
</g>
<g>
</g>
</svg>
